/* XPM */
static char * em_ico_xpm[] = {
"16 16 162 2",
"  	c None",
". 	c #FFFFFF",
"+ 	c #CECECF",
"@ 	c #4D5761",
"# 	c #2E4154",
"$ 	c #B6B9BC",
"% 	c #F0F0F0",
"& 	c #52677C",
"* 	c #6192C1",
"= 	c #6292C2",
"- 	c #A5ADB6",
"; 	c #F8F8F8",
"> 	c #C6C7C7",
", 	c #F2F2F2",
"' 	c #B5B8BC",
") 	c #5982AC",
"! 	c #415365",
"~ 	c #384958",
"{ 	c #B1B3B6",
"] 	c #D4D5D5",
"^ 	c #D0D0D0",
"/ 	c #E7E7E7",
"( 	c #999EA3",
"_ 	c #49627A",
": 	c #C4C7CA",
"< 	c #C6C6C7",
"[ 	c #D0D0D1",
"} 	c #FAFAFA",
"| 	c #A4ADB7",
"1 	c #3D5267",
"2 	c #737475",
"3 	c #848484",
"4 	c #6A737D",
"5 	c #425465",
"6 	c #41505F",
"7 	c #5A646D",
"8 	c #546E89",
"9 	c #547596",
"0 	c #A9ACB0",
"a 	c #51667C",
"b 	c #6D7378",
"c 	c #F1F1F1",
"d 	c #BABDC0",
"e 	c #405D7B",
"f 	c #456686",
"g 	c #506172",
"h 	c #47617B",
"i 	c #4A6C8F",
"j 	c #436281",
"k 	c #334961",
"l 	c #334A62",
"m 	c #435B73",
"n 	c #4F5963",
"o 	c #4D7297",
"p 	c #496B8E",
"q 	c #587DA2",
"r 	c #CCCDCE",
"s 	c #D5D5D5",
"t 	c #354658",
"u 	c #3E5770",
"v 	c #535E69",
"w 	c #4A6A8A",
"x 	c #415E7A",
"y 	c #3A556E",
"z 	c #283A4D",
"A 	c #3A5671",
"B 	c #3F5C79",
"C 	c #395168",
"D 	c #464F58",
"E 	c #32475D",
"F 	c #3D5065",
"G 	c #545F6A",
"H 	c #74818E",
"I 	c #4D6175",
"J 	c #B6B7B9",
"K 	c #596066",
"L 	c #395169",
"M 	c #3E5974",
"N 	c #466788",
"O 	c #425364",
"P 	c #3A4F64",
"Q 	c #455F79",
"R 	c #43586D",
"S 	c #374859",
"T 	c #212D3A",
"U 	c #2A3D4F",
"V 	c #435D77",
"W 	c #989A9B",
"X 	c #72787D",
"Y 	c #4C647B",
"Z 	c #7E8184",
"` 	c #75787B",
" .	c #323940",
"..	c #4D4E4F",
"+.	c #343535",
"@.	c #404141",
"#.	c #566069",
"$.	c #4E6377",
"%.	c #7A848D",
"&.	c #446688",
"*.	c #38526C",
"=.	c #4A6F93",
"-.	c #3D5A75",
";.	c #5781AC",
">.	c #708090",
",.	c #919191",
"'.	c #242424",
").	c #111111",
"!.	c #272727",
"~.	c #363636",
"{.	c #1E1E1E",
"].	c #0A0A0A",
"^.	c #303030",
"/.	c #919292",
"(.	c #4A5A6A",
"_.	c #394F64",
":.	c #566A7D",
"<.	c #50769B",
"[.	c #384859",
"}.	c #2C2E2E",
"|.	c #252525",
"1.	c #838383",
"2.	c #C4C4C4",
"3.	c #FEFEFE",
"4.	c #F4F4F4",
"5.	c #CACACA",
"6.	c #646464",
"7.	c #1A1B1B",
"8.	c #333B43",
"9.	c #49647F",
"0.	c #929292",
"a.	c #333334",
"b.	c #515151",
"c.	c #D7D7D7",
"d.	c #E1E1E1",
"e.	c #474747",
"f.	c #FBFBFB",
"g.	c #BBBBBB",
"h.	c #F3F3F3",
"i.	c #B8B8B8",
"j.	c #2E2E2E",
"k.	c #454545",
"l.	c #575858",
"m.	c #656666",
"n.	c #EEEEEE",
"o.	c #DFDFDF",
"p.	c #444444",
"q.	c #E0E0E0",
"r.	c #E6E6E6",
"s.	c #3C3C3C",
"t.	c #C9C9C9",
"u.	c #DBDBDB",
"v.	c #424242",
"w.	c #989898",
"x.	c #575758",
"y.	c #EDEDED",
"z.	c #FCFCFC",
"A.	c #6D6D6D",
"B.	c #DDDDDD",
"C.	c #DEDEDE",
"D.	c #B9B9B9",
"E.	c #E8E8E8",
". . . . . . . . . . . . . . . . ",
". . + @ # $ . . . . . . . . . . ",
". % & * = - . . . ; > , . . . . ",
". ' ) ! ~ { ] ^ / ( _ : < [ } . ",
". | 1 2 3 4 5 6 7 8 9 0 a 6 b c ",
". d e f g h i j k l m n o p q r ",
". s t u v w x y z A B C D E F G ",
". H I J K L M N O P Q R S T U o ",
". V W X Y Z `  ...+.@.#.$.%.&.*.",
". =.-.;.>.,.'.).!.~.{.].^./.(._.",
". :.<.[.}.|.1.2.; 3.4.5.6.7.8.9.",
". s 0.a.b.c.d.e.d.f.g.h.f.i.j.k.",
". 4.l.m.n.. o.p.q.r.s.t.. . u.v.",
". w.x.y.. . z.u.f.% A.B.. . . C.",
". D.E.. . . . . . . 4.3.. . . . ",
". . . . . . . . . . . . . . . . "};
